<?xml version="1.0" encoding="UTF-8" standalone="no"?>
<!-- Created with Inkscape (http://www.inkscape.org/) -->

<svg
   width="48"
   height="48"
   viewBox="0 0 48 48"
   version="1.1"
   id="svg1"
   inkscape:version="1.3.2 (091e20ef0f, 2023-11-25, custom)"
   sodipodi:docname="settings.svg"
   xmlns:inkscape="http://www.inkscape.org/namespaces/inkscape"
   xmlns:sodipodi="http://sodipodi.sourceforge.net/DTD/sodipodi-0.dtd"
   xmlns="http://www.w3.org/2000/svg"
   xmlns:svg="http://www.w3.org/2000/svg">
  <sodipodi:namedview
     id="namedview1"
     pagecolor="#ffffff"
     bordercolor="#000000"
     borderopacity="0.25"
     inkscape:showpageshadow="2"
     inkscape:pageopacity="0.0"
     inkscape:pagecheckerboard="0"
     inkscape:deskcolor="#d1d1d1"
     inkscape:document-units="px"
     inkscape:zoom="20.032842"
     inkscape:cx="24.409916"
     inkscape:cy="24.534711"
     inkscape:window-width="1920"
     inkscape:window-height="1029"
     inkscape:window-x="0"
     inkscape:window-y="27"
     inkscape:window-maximized="1"
     inkscape:current-layer="layer1" />
  <defs
     id="defs1">
    <inkscape:path-effect
       effect="powermask"
       id="path-effect21"
       is_visible="true"
       lpeversion="1"
       uri="#mask-powermask-path-effect21"
       invert="false"
       hide_mask="false"
       background="true"
       background_color="#ffffffff" />
    <linearGradient
       id="swatch21"
       inkscape:swatch="solid">
      <stop
         style="stop-color:#2d9b00;stop-opacity:1;"
         offset="0"
         id="stop21" />
    </linearGradient>
    <clipPath
       clipPathUnits="userSpaceOnUse"
       id="clipPath25">
      <rect
         style="fill:#ff0000;stroke:none;stroke-width:3;stroke-linecap:square;stroke-linejoin:miter;paint-order:stroke markers fill;stop-color:#000000"
         id="rect25-8"
         width="78"
         height="45.033199"
         x="763.61322"
         y="452.82422" />
    </clipPath>
    <inkscape:path-effect
       effect="skeletal"
       id="path-effect6"
       is_visible="true"
       lpeversion="1"
       pattern="m -8.6633844,16.690001 h 6.4507885 v 5.596901 h -6.4507885 z"
       copytype="repeated_stretched"
       prop_scale="1"
       scale_y_rel="true"
       spacing="5.9"
       normal_offset="0"
       tang_offset="0"
       prop_units="false"
       vertical_pattern="false"
       hide_knot="false"
       fuse_tolerance="0" />
    <inkscape:perspective
       sodipodi:type="inkscape:persp3d"
       inkscape:vp_x="0 : 24 : 1"
       inkscape:vp_y="0 : 1000 : 0"
       inkscape:vp_z="48 : 24 : 1"
       inkscape:persp3d-origin="24 : 16 : 1"
       id="perspective1" />
    <inkscape:path-effect
       effect="skeletal"
       id="path-effect6-7"
       is_visible="true"
       lpeversion="1"
       pattern="m -8.6633844,16.690001 h 6.4507885 v 5.596901 h -6.4507885 z"
       copytype="repeated_stretched"
       prop_scale="1"
       scale_y_rel="true"
       spacing="5.9"
       normal_offset="0"
       tang_offset="0"
       prop_units="false"
       vertical_pattern="false"
       hide_knot="false"
       fuse_tolerance="0" />
    <filter
       id="mask-powermask-path-effect21_inverse"
       inkscape:label="filtermask-powermask-path-effect21"
       style="color-interpolation-filters:sRGB"
       height="100"
       width="100"
       x="-50"
       y="-50">
      <feColorMatrix
         id="mask-powermask-path-effect21_primitive1"
         values="1"
         type="saturate"
         result="fbSourceGraphic" />
      <feColorMatrix
         id="mask-powermask-path-effect21_primitive2"
         values="-1 0 0 0 1 0 -1 0 0 1 0 0 -1 0 1 0 0 0 1 0 "
         in="fbSourceGraphic" />
    </filter>
    <mask
       maskUnits="userSpaceOnUse"
       id="mask-powermask-path-effect21">
      <path
         id="mask-powermask-path-effect21_box"
         style="fill:#ffffff;fill-opacity:1"
         d="M -0.55803787,-0.56131139 H 39.431013 V 39.152822 H -0.55803787 Z" />
      <path
         id="path21"
         style="mix-blend-mode:normal;fill:#000002;fill-opacity:1;stroke:#000000;stroke-width:0.34;stroke-dasharray:none;stroke-dashoffset:0;paint-order:normal"
         d="m 20.532714,21.421099 -2.466308,-1.882037 c -0.01304,0.01234 -0.02606,0.02472 -0.03906,0.03711 l -0.0332,-0.0293 -5.839844,0.650391 c -0.379301,0.696958 -0.718699,1.41722 -1.009766,2.158203 l 4.269531,1.689453 c -0.535331,1.446922 -0.830884,2.971526 -0.875,4.513672 l -4.6660151,-0.08398 c -0.0032,0.09949 -0.00436,0.199042 -0.00586,0.298829 0.03433,2.237517 0.4855001,4.404085 1.2773431,6.419921 l 4.181641,-1.65625 c 0.524289,1.514448 1.301582,2.92903 2.298828,4.183594 l -1.117188,0.925781 6.012477,0.674827 5.856664,-2.069358 c -4.491017,-0.167925 -8.049471,-3.84962 -8.064453,-8.34375 0.01865,-2.752628 1.388349,-5.320452 3.664062,-6.869141 z"
         sodipodi:nodetypes="ccccccccccccccccccc" />
    </mask>
  </defs>
  <g
     inkscape:label="Layer 1"
     inkscape:groupmode="layer"
     id="layer1">
    <path
       id="path6-1"
       style="fill:#322ed9;fill-opacity:1;stroke:#000000;stroke-width:0.340025"
       d="m 25.684081,10.250196 c -2.25168,0.416051 -4.38512,1.249697 -6.315103,2.412531 l 2.38266,3.923657 a 14.176277,14.176277 0 0 0 -3.725103,2.990626 l -3.373678,-2.964269 c -1.482963,1.693063 -2.681818,3.636543 -3.508976,5.74228 l 4.269811,1.690354 a 14.176277,14.176277 0 0 0 -0.875048,4.512294 l -4.6651633,-0.08259 c -0.0032,0.09949 -0.0055,0.198924 -0.007,0.298711 0.03433,2.23752 0.4855853,4.402935 1.2774293,6.418773 l 4.181955,-1.655209 a 14.176277,14.176277 0 0 0 2.298319,4.183711 l -3.345565,2.772741 c 1.433781,1.735113 3.160406,3.228216 5.090387,4.391054 l 2.259662,-3.72159 a 14.176277,14.176277 0 0 0 4.424436,1.64291 l -0.941819,4.375239 c 1.163138,0.253704 2.35896,0.395987 3.577507,0.414682 1.118759,-0.01715 2.21994,-0.138828 3.292848,-0.354939 l -0.869776,-4.387538 a 14.176277,14.176277 0 0 0 4.442009,-1.581413 l 2.206947,3.760247 c 1.947285,-1.13452 3.695114,-2.603005 5.153644,-4.317253 l -3.294605,-2.811399 a 14.176277,14.176277 0 0 0 2.359814,-4.159113 l 4.146815,1.716711 c 0.858721,-2.091686 1.35051,-4.350309 1.38637,-6.687614 h -4.64935 A 14.176277,14.176277 0 0 0 42.072803,24.238654 L 46.3391,22.625615 c -0.795279,-2.119468 -1.96611,-4.078986 -3.424639,-5.793234 l -3.414092,2.911555 a 14.176277,14.176277 0 0 0 -3.663602,-3.074967 l 2.41956,-3.856887 c -1.912364,-1.190833 -4.033178,-2.054157 -6.274691,-2.505658 l -0.917217,4.630021 a 14.176277,14.176277 0 0 0 -2.373874,-0.203826 14.176277,14.176277 0 0 0 -2.164777,0.175712 z m 3.006439,10.280931 a 8.3775281,8.3775281 0 0 1 8.377966,8.377968 8.3775281,8.3775281 0 0 1 -8.377966,8.377965 8.3775281,8.3775281 0 0 1 -8.377967,-8.377965 8.3775281,8.3775281 0 0 1 8.377967,-8.377968 z" />
    <path
       id="path6"
       style="fill:#2d9b00;fill-opacity:1;stroke:#000000;stroke-width:0.340025"
       d="M 16.42962,0.63688454 C 14.17794,1.0529362 12.0445,1.8865817 10.114517,3.0494156 l 2.38266,3.9236575 A 14.176277,14.176277 0 0 0 8.7720739,9.963699 L 5.3983965,6.9994301 C 3.915433,8.6924931 2.7165784,10.635973 1.88942,12.74171 l 4.2698109,1.690354 a 14.176277,14.176277 0 0 0 -0.8750476,4.512294 l -4.6651638,-0.08259 c -0.003185,0.09949 -0.005505,0.198924 -0.007025,0.298711 0.0343307,2.23752 0.4855855,4.402935 1.2774291,6.418773 l 4.181955,-1.655209 a 14.176277,14.176277 0 0 0 2.298319,4.183711 l -3.3455647,2.772741 c 1.4337814,1.735113 3.1604057,3.228216 5.0903871,4.391054 l 2.259662,-3.72159 a 14.176277,14.176277 0 0 0 4.424436,1.64291 l -0.941819,4.375239 c 1.163138,0.253704 2.35896,0.395987 3.577507,0.414682 1.118759,-0.01715 2.21994,-0.138828 3.292848,-0.354939 L 21.857378,33.240313 A 14.176277,14.176277 0 0 0 26.299387,31.6589 l 2.206947,3.760247 c 1.947285,-1.13452 3.695114,-2.603005 5.153644,-4.317253 l -3.294605,-2.811399 a 14.176277,14.176277 0 0 0 2.359814,-4.159113 l 4.146815,1.716711 c 0.858721,-2.091686 1.35051,-4.350309 1.38637,-6.687614 h -4.64935 a 14.176277,14.176277 0 0 0 -0.790705,-4.535136 l 4.266297,-1.613039 C 36.289335,10.892836 35.118504,8.9333184 33.659975,7.2190705 L 30.245883,10.130625 A 14.176277,14.176277 0 0 0 26.582281,7.0556579 l 2.41956,-3.8568867 C 27.089477,2.007938 24.968663,1.1446137 22.72715,0.69311254 L 21.809933,5.3231339 A 14.176277,14.176277 0 0 0 19.436059,5.1193076 14.176277,14.176277 0 0 0 17.271282,5.2950199 Z M 19.436059,10.917816 a 8.3775281,8.3775281 0 0 1 8.377966,8.377968 8.3775281,8.3775281 0 0 1 -8.377966,8.377965 8.3775281,8.3775281 0 0 1 -8.377967,-8.377965 8.3775281,8.3775281 0 0 1 8.377967,-8.377968 z"
       mask="url(#mask-powermask-path-effect21)"
       inkscape:path-effect="#path-effect21"
       inkscape:original-d="M 16.42962,0.63688454 C 14.17794,1.0529362 12.0445,1.8865817 10.114517,3.0494156 l 2.38266,3.9236575 A 14.176277,14.176277 0 0 0 8.7720739,9.963699 L 5.3983965,6.9994301 C 3.915433,8.6924931 2.7165784,10.635973 1.88942,12.74171 l 4.2698109,1.690354 a 14.176277,14.176277 0 0 0 -0.8750476,4.512294 l -4.6651638,-0.08259 c -0.003185,0.09949 -0.005505,0.198924 -0.007025,0.298711 0.0343307,2.23752 0.4855855,4.402935 1.2774291,6.418773 l 4.181955,-1.655209 a 14.176277,14.176277 0 0 0 2.298319,4.183711 l -3.3455647,2.772741 c 1.4337814,1.735113 3.1604057,3.228216 5.0903871,4.391054 l 2.259662,-3.72159 a 14.176277,14.176277 0 0 0 4.424436,1.64291 l -0.941819,4.375239 c 1.163138,0.253704 2.35896,0.395987 3.577507,0.414682 1.118759,-0.01715 2.21994,-0.138828 3.292848,-0.354939 L 21.857378,33.240313 A 14.176277,14.176277 0 0 0 26.299387,31.6589 l 2.206947,3.760247 c 1.947285,-1.13452 3.695114,-2.603005 5.153644,-4.317253 l -3.294605,-2.811399 a 14.176277,14.176277 0 0 0 2.359814,-4.159113 l 4.146815,1.716711 c 0.858721,-2.091686 1.35051,-4.350309 1.38637,-6.687614 h -4.64935 a 14.176277,14.176277 0 0 0 -0.790705,-4.535136 l 4.266297,-1.613039 C 36.289335,10.892836 35.118504,8.9333184 33.659975,7.2190705 L 30.245883,10.130625 A 14.176277,14.176277 0 0 0 26.582281,7.0556579 l 2.41956,-3.8568867 C 27.089477,2.007938 24.968663,1.1446137 22.72715,0.69311254 L 21.809933,5.3231339 A 14.176277,14.176277 0 0 0 19.436059,5.1193076 14.176277,14.176277 0 0 0 17.271282,5.2950199 Z M 19.436059,10.917816 a 8.3775281,8.3775281 0 0 1 8.377966,8.377968 8.3775281,8.3775281 0 0 1 -8.377966,8.377965 8.3775281,8.3775281 0 0 1 -8.377967,-8.377965 8.3775281,8.3775281 0 0 1 8.377967,-8.377968 z" />
  </g>
</svg>
